PathFileType	4	(X/Y/Z)	G:\Shared drives\HPL_Drive\Pi-Spi Study\20230118_AMCsubject1\Trimmed_left_horiz_abd01_rotated.trc
DataRate	CameraRate	NumFrames	NumMarkers	Units	OrigDataRate	OrigDataStartFrame	OrigNumFrames
200.00	200.00	       4	35	mm	200.00	51	       200
Frame#	Time	C7			Sternum			r_AMC1			r_AMC2			r_AMC3			l_AMC1			l_AMC2			l_AMC3			PX			T8			r_humerous			r_elbow_medial			r_elbow_lateral			r_forearm			r_wrist_radius			r_wrist_ulna			r_MCP_1			r_MCP_3			l_humerous			l_elbow_medial			l_elbow_lateral			l_forearm			l_wrist_radius			l_wrist_ulna			l_MCP_1			l_MCP_3			r_ASIS			r_PSIS			l_ASIS			l_PSIS			r_IC			l_IC			TS			AI			AA			
		X1	Y1	Z1	X2	Y2	Z2	X3	Y3	Z3	X4	Y4	Z4	X5	Y5	Z5	X6	Y6	Z6	X7	Y7	Z7	X8	Y8	Z8	X9	Y9	Z9	X10	Y10	Z10	X11	Y11	Z11	X12	Y12	Z12	X13	Y13	Z13	X14	Y14	Z14	X15	Y15	Z15	X16	Y16	Z16	X17	Y17	Z17	X18	Y18	Z18	X19	Y19	Z19	X20	Y20	Z20	X21	Y21	Z21	X22	Y22	Z22	X23	Y23	Z23	X24	Y24	Z24	X25	Y25	Z25	X26	Y26	Z26	X27	Y27	Z27	X28	Y28	Z28	X29	Y29	Z29	X30	Y30	Z30	X31	Y31	Z31	X32	Y32	Z32	X33	Y33	Z33	X34	Y34	Z34	X35	Y35	Z35	

51	0.25	234.6575	1374.4136	-200.909	370.6402	1322.3788	-220.351	240.4383	1326.9365	-62.4331	275.1693	1331.9853	-27.0135	294.606	1365.3356	-50.4947	194.0926	1355.2488	-315.3147	215.3951	1374.9395	-357.6395	246.0262	1401.7036	-322.1035	428.0943	1125.6899	-238.3023	194.2795	1198.4198	-205.6364	345.6507	1148.4546	-7.8536	272.2347	1007.2212	-24.8251	292.7546	1020.2851	38.1276	350.341	865.8336	60.2513	398.7005	802.7983	38.8583	353.0131	796.9339	62.2784	422.9888	721.1822	51.6319	375.8379	717.2908	70.9296	264.994	1347.9557	-510.1391	220.0508	1259.4448	-618.3567	188.6503	1300.9861	-625.1787	161.3885	1314.6325	-780.8502	166.3503	1326.8954	-857.4178	159.8953	1284.3086	-856.7725	148.0909	1328.3389	-933.6771	149.6646	1284.6693	-935.0752	388.6604	904.2207	-100.477	198.4489	932.7789	-171.1143	374.802	889.9661	-356.6186	193.1924	927.4988	-273.0167	312.8963	967.8379	-64.5336	289.3241	942.3641	-388.0863	138.8361	1298.4651	-248.189	150.5045	1201.5085	-274.54	142.7692	1339.8193	-380.6336
52	0.255	234.5921	1374.3016	-200.9639	370.6158	1322.3862	-220.3502	240.4391	1326.948	-62.4332	275.1661	1332.009	-27.0297	294.6098	1365.2981	-50.5003	194.0853	1355.2332	-315.3381	215.3735	1374.9332	-357.6352	246.0237	1401.7101	-322.1117	428.1139	1125.7078	-238.2938	194.2616	1198.384	-205.6468	345.6717	1148.4705	-7.8455	272.2751	1007.2361	-24.7862	292.7875	1020.3308	38.1396	350.3646	865.9433	60.3575	398.7291	802.9001	38.8296	353.0428	797.0045	62.3389	423.0231	721.2877	51.6181	375.9051	717.28	70.922	264.9182	1348.0037	-510.1234	220.0534	1259.4207	-618.3785	188.6421	1300.976	-625.1762	161.3556	1314.6503	-780.8578	166.3299	1326.9374	-857.4205	159.8889	1284.3329	-856.768	148.0697	1328.3679	-933.6559	149.6705	1284.7059	-935.0944	388.5678	904.1955	-100.4364	198.4445	932.7869	-171.1344	374.8117	889.9754	-356.6139	193.2172	927.5175	-273.0347	312.8707	967.8259	-64.5378	289.3329	942.3801	-388.0661	138.821	1298.4597	-248.2309	150.5188	1201.4967	-274.6428	142.778	1339.8225	-380.6531
53	0.26	234.6219	1374.4121	-200.9231	370.572	1322.3822	-220.3484	240.4222	1326.969	-62.4254	275.1326	1332.0612	-27.0142	294.5774	1365.3394	-50.5038	194.0773	1355.2489	-315.3205	215.3562	1374.9276	-357.6484	245.9955	1401.6842	-322.0998	428.0866	1125.6956	-238.3047	194.2782	1198.363	-205.6401	345.6599	1148.4823	-7.8358	272.2515	1007.2424	-24.7839	292.7993	1020.3469	38.1808	350.3254	865.9363	60.3132	398.775	802.8876	38.8739	353.0907	796.9388	62.3241	423.095	721.2576	51.6216	375.9751	717.2871	70.9617	264.9515	1347.9016	-510.0806	220.0575	1259.437	-618.3834	188.5978	1300.9374	-625.1821	161.3402	1314.6715	-780.8471	166.3037	1326.9683	-857.4094	159.8904	1284.3647	-856.7758	148.0549	1328.4021	-933.6616	149.671	1284.7767	-935.1191	388.6068	904.232	-100.4112	198.4324	932.7934	-171.1656	374.8567	889.9478	-356.5525	193.234	927.4731	-273.0535	312.9186	967.7993	-64.5742	289.3894	942.3726	-388.0939	138.8122	1298.4492	-248.2933	150.5119	1201.5504	-274.6425	142.7652	1339.816	-380.6961
54	0.265	234.6084	1374.4097	-200.8974	370.5606	1322.3626	-220.3578	240.427	1326.9847	-62.4142	275.1676	1332.012	-27.0266	294.516	1365.3721	-50.4714	194.0365	1355.2208	-315.3094	215.3263	1374.8915	-357.626	245.9717	1401.6578	-322.0753	428.0753	1125.7283	-238.2887	194.295	1198.3615	-205.6141	345.653	1148.5104	-7.8173	272.3001	1007.268	-24.7578	292.8006	1020.3417	38.1911	350.4224	865.9191	60.3336	398.8263	802.8932	38.8961	353.1661	796.9642	62.3778	423.1743	721.2553	51.6145	375.995	717.4	70.9934	264.866	1347.9679	-510.0835	220.0474	1259.4382	-618.361	188.564	1300.9355	-625.1715	161.304	1314.6696	-780.8577	166.2659	1326.9867	-857.3737	159.8972	1284.3983	-856.773	148.032	1328.4642	-933.6623	149.7048	1284.8153	-935.1019	388.564	904.237	-100.3667	198.4196	932.7844	-171.1698	374.8838	889.9515	-356.5432	193.2532	927.4805	-273.0698	312.8716	967.8324	-64.5641	289.4589	942.3236	-388.0923	138.7889	1298.4415	-248.296	150.4505	1201.4928	-274.6564	142.7578	1339.8007	-380.7115
